G04*
G04 #@! TF.GenerationSoftware,Altium Limited,Altium Designer,21.2.2 (38)*
G04*
G04 Layer_Color=32768*
%FSLAX25Y25*%
%MOIN*%
G70*
G04*
G04 #@! TF.SameCoordinates,8CE579DD-E24D-4BF9-88A6-D400C93C7681*
G04*
G04*
G04 #@! TF.FilePolarity,Positive*
G04*
G01*
G75*
%ADD125C,0.00197*%
%ADD128C,0.00394*%
D125*
X180118Y128740D02*
X189961D01*
X180118D02*
Y138976D01*
X189961D01*
Y128740D02*
Y138976D01*
X178937Y148425D02*
Y154724D01*
X191142Y148425D02*
Y154724D01*
X178937D02*
X191142D01*
X178937Y148425D02*
X191142D01*
X182677Y162598D02*
Y168110D01*
X187402Y162598D02*
Y168110D01*
X182677D02*
X187402D01*
X182677Y162598D02*
X187402D01*
X149016Y45276D02*
X181693D01*
X149016Y88583D02*
X181693D01*
X149016Y45276D02*
Y88583D01*
X181693Y45276D02*
Y88583D01*
X143405Y167520D02*
X171555D01*
X143405Y147441D02*
Y167520D01*
X171555Y147441D02*
Y167520D01*
X143405Y147441D02*
X171555D01*
X104331Y45276D02*
X147638D01*
X104331Y88583D02*
X147638D01*
X104331Y45276D02*
Y88583D01*
X147638Y45276D02*
Y88583D01*
X67618Y42126D02*
X97736D01*
X67618Y91732D02*
X97736D01*
Y42126D02*
Y91732D01*
X67618Y42126D02*
Y91732D01*
X62205Y106693D02*
X103150D01*
X62205Y168898D02*
X103150D01*
Y106693D02*
Y168898D01*
X62205Y106693D02*
Y168898D01*
X12303Y22047D02*
X58563D01*
X12303Y92126D02*
X58563D01*
Y22047D02*
Y92126D01*
X12303Y22047D02*
Y92126D01*
X12402Y102756D02*
X58465D01*
X12402Y172835D02*
X58465D01*
Y102756D02*
Y172835D01*
X12402Y102756D02*
Y172835D01*
X270276Y33071D02*
Y45669D01*
X244685Y33071D02*
Y45669D01*
Y33071D02*
X270276D01*
X244685Y45669D02*
X270276D01*
X244882Y47441D02*
Y62795D01*
X268504Y47441D02*
Y62795D01*
X244882D02*
X268504D01*
X244882Y47441D02*
X268504D01*
X260433Y65158D02*
Y76575D01*
X245079Y65158D02*
Y76575D01*
Y65158D02*
X260433D01*
X245079Y76575D02*
X260433D01*
X243701Y97441D02*
X260236D01*
X243701Y87598D02*
X260236D01*
X243701D02*
Y97441D01*
X260236Y87598D02*
Y97441D01*
X245472Y116535D02*
X249803D01*
X245472Y114173D02*
X249803D01*
X245472D02*
Y116535D01*
X249803Y114173D02*
Y116535D01*
X252362Y107677D02*
Y111221D01*
X245276Y107677D02*
Y111221D01*
Y107677D02*
X252362D01*
X245276Y111221D02*
X252362D01*
X256890Y98032D02*
Y105905D01*
X243898Y98032D02*
Y105905D01*
Y98032D02*
X256890D01*
X243898Y105905D02*
X256890D01*
X260433Y78740D02*
Y86614D01*
X245079Y78740D02*
Y86614D01*
Y78740D02*
X260433D01*
X245079Y86614D02*
X260433D01*
X118799Y75492D02*
X133169D01*
X118799Y89862D02*
X133169D01*
X118799Y75492D02*
Y89862D01*
X133169Y75492D02*
Y89862D01*
X133465Y102756D02*
Y117717D01*
X118504Y102756D02*
Y117717D01*
X133465D01*
X118504Y102756D02*
X133465D01*
X208071Y129331D02*
Y185630D01*
X264370Y129331D02*
Y185630D01*
X208071D02*
X264370D01*
X208071Y129331D02*
X264370D01*
X158858Y135236D02*
Y179724D01*
X203346Y135236D02*
Y179724D01*
X158858D02*
X203346D01*
X158858Y135236D02*
X203346D01*
X118504Y138189D02*
X157087D01*
X118504Y176772D02*
X157087D01*
Y138189D02*
Y176772D01*
X118504Y138189D02*
Y176772D01*
X101969Y135433D02*
Y179527D01*
X63386Y135433D02*
Y179527D01*
X101969D01*
X63386Y135433D02*
X101969D01*
X60039Y89961D02*
X105315D01*
X60039Y130512D02*
X105315D01*
X60039Y89961D02*
Y130512D01*
X105315Y89961D02*
Y130512D01*
X38386Y23031D02*
Y63583D01*
X8858Y23031D02*
Y63583D01*
X38386D01*
X8858Y23031D02*
X38386D01*
X23031Y68012D02*
Y89468D01*
X8465Y68012D02*
Y89468D01*
X23031D01*
X8465Y68012D02*
X23031D01*
X93898Y48425D02*
Y85433D01*
X63583Y48425D02*
Y85433D01*
X93898D01*
X63583Y48425D02*
X93898D01*
X25197Y92913D02*
Y111811D01*
X6299Y92913D02*
Y111811D01*
X25197D01*
X6299Y92913D02*
X25197D01*
X7677Y130512D02*
X23819D01*
X7677Y149016D02*
X23819D01*
X7677Y130512D02*
Y149016D01*
X23819Y130512D02*
Y149016D01*
X9252Y115354D02*
X22244D01*
X9252Y128740D02*
X22244D01*
X9252Y115354D02*
Y128740D01*
X22244Y115354D02*
Y128740D01*
X11024Y167323D02*
X20472D01*
X11024Y179134D02*
X20472D01*
X11024Y167323D02*
Y179134D01*
X20472Y167323D02*
Y179134D01*
X9606Y151378D02*
X21890D01*
X9606Y163583D02*
X21890D01*
X9606Y151378D02*
Y163583D01*
X21890Y151378D02*
Y163583D01*
D128*
X185039Y131890D02*
Y135827D01*
X183071Y133858D02*
X187008D01*
X183071Y151575D02*
X187008D01*
X185039Y149606D02*
Y153543D01*
X183071Y165354D02*
X187008D01*
X185039Y163386D02*
Y167323D01*
X165354Y64961D02*
Y68898D01*
X163386Y66929D02*
X167323D01*
X155512Y157480D02*
X159449D01*
X157480Y155512D02*
Y159449D01*
X125984Y64961D02*
Y68898D01*
X124016Y66929D02*
X127953D01*
X82677Y64961D02*
Y68898D01*
X80709Y66929D02*
X84646D01*
X82677Y135827D02*
Y139764D01*
X80709Y137795D02*
X84646D01*
X35433Y55118D02*
Y59055D01*
X33465Y57087D02*
X37402D01*
X35433Y135827D02*
Y139764D01*
X33465Y137795D02*
X37402D01*
X255512Y39370D02*
X259449D01*
X257480Y37402D02*
Y41339D01*
X254724Y55118D02*
X258661D01*
X256693Y53150D02*
Y57087D01*
X250787Y70866D02*
X254724D01*
X252756Y68898D02*
Y72835D01*
X251969Y90551D02*
Y94488D01*
X250000Y92520D02*
X253937D01*
X247638Y114705D02*
Y116004D01*
X246988Y115354D02*
X248287D01*
X247736Y109449D02*
X249902D01*
X248819Y108366D02*
Y110531D01*
X248622Y101969D02*
X252165D01*
X250394Y100197D02*
Y103740D01*
X250787Y82677D02*
X254724D01*
X252756Y80709D02*
Y84646D01*
X125984Y80709D02*
Y84646D01*
X124016Y82677D02*
X127953D01*
X124016Y110236D02*
X127953D01*
X125984Y108268D02*
Y112205D01*
X234252Y157480D02*
X238189D01*
X236221Y155512D02*
Y159449D01*
X179134Y157480D02*
X183071D01*
X181102Y155512D02*
Y159449D01*
X137795Y155512D02*
Y159449D01*
X135827Y157480D02*
X139764D01*
X80709Y157480D02*
X84646D01*
X82677Y155512D02*
Y159449D01*
Y108268D02*
Y112205D01*
X80709Y110236D02*
X84646D01*
X21654Y43307D02*
X25591D01*
X23622Y41339D02*
Y45276D01*
X13780Y78740D02*
X17717D01*
X15748Y76772D02*
Y80709D01*
X76772Y66929D02*
X80709D01*
X78740Y64961D02*
Y68898D01*
X13780Y102687D02*
X17717D01*
X15748Y100718D02*
Y104656D01*
Y137795D02*
Y141732D01*
X13780Y139764D02*
X17717D01*
X15748Y120079D02*
Y124016D01*
X13780Y122047D02*
X17717D01*
X15748Y171260D02*
Y175197D01*
X13780Y173228D02*
X17717D01*
X15748Y155512D02*
Y159449D01*
X13780Y157480D02*
X17717D01*
M02*
