G04*
G04 #@! TF.GenerationSoftware,Altium Limited,Altium Designer,21.2.2 (38)*
G04*
G04 Layer_Color=16711935*
%FSLAX25Y25*%
%MOIN*%
G70*
G04*
G04 #@! TF.SameCoordinates,8CE579DD-E24D-4BF9-88A6-D400C93C7681*
G04*
G04*
G04 #@! TF.FilePolarity,Negative*
G04*
G01*
G75*
%ADD52C,0.06800*%
%ADD53C,0.02520*%
G04:AMPARAMS|DCode=92|XSize=84.81mil|YSize=22.32mil|CornerRadius=11.16mil|HoleSize=0mil|Usage=FLASHONLY|Rotation=180.000|XOffset=0mil|YOffset=0mil|HoleType=Round|Shape=RoundedRectangle|*
%AMROUNDEDRECTD92*
21,1,0.08481,0.00000,0,0,180.0*
21,1,0.06249,0.02232,0,0,180.0*
1,1,0.02232,-0.03125,0.00000*
1,1,0.02232,0.03125,0.00000*
1,1,0.02232,0.03125,0.00000*
1,1,0.02232,-0.03125,0.00000*
%
%ADD92ROUNDEDRECTD92*%
%ADD93R,0.08481X0.02232*%
%ADD96C,0.01575*%
%ADD105C,0.00689*%
G04:AMPARAMS|DCode=106|XSize=43.43mil|YSize=70.99mil|CornerRadius=5.95mil|HoleSize=0mil|Usage=FLASHONLY|Rotation=90.000|XOffset=0mil|YOffset=0mil|HoleType=Round|Shape=RoundedRectangle|*
%AMROUNDEDRECTD106*
21,1,0.04343,0.05909,0,0,90.0*
21,1,0.03154,0.07099,0,0,90.0*
1,1,0.01190,0.02955,0.01577*
1,1,0.01190,0.02955,-0.01577*
1,1,0.01190,-0.02955,-0.01577*
1,1,0.01190,-0.02955,0.01577*
%
%ADD106ROUNDEDRECTD106*%
G04:AMPARAMS|DCode=107|XSize=17.84mil|YSize=27.69mil|CornerRadius=5.97mil|HoleSize=0mil|Usage=FLASHONLY|Rotation=0.000|XOffset=0mil|YOffset=0mil|HoleType=Round|Shape=RoundedRectangle|*
%AMROUNDEDRECTD107*
21,1,0.01784,0.01575,0,0,0.0*
21,1,0.00591,0.02769,0,0,0.0*
1,1,0.01194,0.00295,-0.00787*
1,1,0.01194,-0.00295,-0.00787*
1,1,0.01194,-0.00295,0.00787*
1,1,0.01194,0.00295,0.00787*
%
%ADD107ROUNDEDRECTD107*%
G04:AMPARAMS|DCode=108|XSize=15.87mil|YSize=30.24mil|CornerRadius=5.97mil|HoleSize=0mil|Usage=FLASHONLY|Rotation=0.000|XOffset=0mil|YOffset=0mil|HoleType=Round|Shape=RoundedRectangle|*
%AMROUNDEDRECTD108*
21,1,0.01587,0.01831,0,0,0.0*
21,1,0.00394,0.03024,0,0,0.0*
1,1,0.01194,0.00197,-0.00915*
1,1,0.01194,-0.00197,-0.00915*
1,1,0.01194,-0.00197,0.00915*
1,1,0.01194,0.00197,0.00915*
%
%ADD108ROUNDEDRECTD108*%
G04:AMPARAMS|DCode=109|XSize=23.75mil|YSize=30.24mil|CornerRadius=5.97mil|HoleSize=0mil|Usage=FLASHONLY|Rotation=0.000|XOffset=0mil|YOffset=0mil|HoleType=Round|Shape=RoundedRectangle|*
%AMROUNDEDRECTD109*
21,1,0.02375,0.01831,0,0,0.0*
21,1,0.01181,0.03024,0,0,0.0*
1,1,0.01194,0.00591,-0.00915*
1,1,0.01194,-0.00591,-0.00915*
1,1,0.01194,-0.00591,0.00915*
1,1,0.01194,0.00591,0.00915*
%
%ADD109ROUNDEDRECTD109*%
G04:AMPARAMS|DCode=110|XSize=15.87mil|YSize=28.87mil|CornerRadius=5.97mil|HoleSize=0mil|Usage=FLASHONLY|Rotation=0.000|XOffset=0mil|YOffset=0mil|HoleType=Round|Shape=RoundedRectangle|*
%AMROUNDEDRECTD110*
21,1,0.01587,0.01693,0,0,0.0*
21,1,0.00394,0.02887,0,0,0.0*
1,1,0.01194,0.00197,-0.00847*
1,1,0.01194,-0.00197,-0.00847*
1,1,0.01194,-0.00197,0.00847*
1,1,0.01194,0.00197,0.00847*
%
%ADD110ROUNDEDRECTD110*%
G04:AMPARAMS|DCode=111|XSize=33.59mil|YSize=72.96mil|CornerRadius=5.92mil|HoleSize=0mil|Usage=FLASHONLY|Rotation=90.000|XOffset=0mil|YOffset=0mil|HoleType=Round|Shape=RoundedRectangle|*
%AMROUNDEDRECTD111*
21,1,0.03359,0.06112,0,0,90.0*
21,1,0.02175,0.07296,0,0,90.0*
1,1,0.01184,0.03056,0.01088*
1,1,0.01184,0.03056,-0.01088*
1,1,0.01184,-0.03056,-0.01088*
1,1,0.01184,-0.03056,0.01088*
%
%ADD111ROUNDEDRECTD111*%
%ADD112R,0.06902X0.03162*%
%ADD113C,0.02572*%
%ADD114R,0.04737X0.12020*%
%ADD115R,0.23044X0.27965*%
%ADD116R,0.04343X0.14776*%
%ADD117R,0.40367X0.32690*%
%ADD118R,0.05131X0.16942*%
%ADD119R,0.43123X0.35052*%
%ADD120R,0.42926X0.35052*%
D52*
X377953Y70866D02*
D03*
X375984Y39370D02*
D03*
X379921Y100000D02*
D03*
X381890Y124016D02*
D03*
X383071Y143701D02*
D03*
X383858Y159449D02*
D03*
X385039Y173228D02*
D03*
D53*
X183465Y133858D02*
D03*
X186614D02*
D03*
D92*
X148126Y133110D02*
D03*
Y128110D02*
D03*
Y123110D02*
D03*
Y118110D02*
D03*
Y113110D02*
D03*
Y108110D02*
D03*
Y103110D02*
D03*
X166835D02*
D03*
Y108110D02*
D03*
Y113110D02*
D03*
Y118110D02*
D03*
Y123110D02*
D03*
Y128110D02*
D03*
D93*
Y133110D02*
D03*
D96*
X112992Y129134D02*
D03*
Y125984D02*
D03*
Y122835D02*
D03*
Y119685D02*
D03*
Y116535D02*
D03*
Y113386D02*
D03*
Y110236D02*
D03*
Y107087D02*
D03*
X116142Y129134D02*
D03*
Y125984D02*
D03*
Y122835D02*
D03*
Y119685D02*
D03*
Y116535D02*
D03*
Y113386D02*
D03*
Y110236D02*
D03*
Y107087D02*
D03*
X119291Y129134D02*
D03*
Y125984D02*
D03*
Y122835D02*
D03*
Y119685D02*
D03*
Y116535D02*
D03*
Y113386D02*
D03*
Y110236D02*
D03*
Y107087D02*
D03*
X122441Y129134D02*
D03*
Y125984D02*
D03*
Y122835D02*
D03*
Y119685D02*
D03*
Y116535D02*
D03*
Y113386D02*
D03*
Y110236D02*
D03*
Y107087D02*
D03*
X125591Y129134D02*
D03*
Y125984D02*
D03*
Y122835D02*
D03*
Y119685D02*
D03*
Y116535D02*
D03*
Y113386D02*
D03*
Y110236D02*
D03*
Y107087D02*
D03*
X128740Y129134D02*
D03*
Y125984D02*
D03*
Y122835D02*
D03*
Y119685D02*
D03*
Y116535D02*
D03*
Y113386D02*
D03*
Y110236D02*
D03*
Y107087D02*
D03*
X131890Y129134D02*
D03*
Y125984D02*
D03*
Y122835D02*
D03*
Y119685D02*
D03*
Y116535D02*
D03*
Y113386D02*
D03*
Y110236D02*
D03*
Y107087D02*
D03*
X135039Y129134D02*
D03*
Y125984D02*
D03*
Y122835D02*
D03*
Y119685D02*
D03*
Y116535D02*
D03*
Y113386D02*
D03*
Y110236D02*
D03*
Y107087D02*
D03*
D105*
X116486Y161417D02*
X115797D01*
X116486D01*
X128297D02*
X127608D01*
X128297D01*
X114518Y159449D02*
X113829D01*
X114518D01*
X116486D02*
X115797D01*
X116486D01*
X128297D02*
X127608D01*
X128297D01*
X130266D02*
X129577D01*
X130266D01*
X114518Y165354D02*
X113829D01*
X114518D01*
X116486D02*
X115797D01*
X116486D01*
X120423D02*
X119734D01*
X120423D01*
X122392D02*
X121703D01*
X122392D01*
X124360D02*
X123671D01*
X124360D01*
X128297D02*
X127608D01*
X128297D01*
X130266D02*
X129577D01*
X130266D01*
X114518Y163386D02*
X113829D01*
X114518D01*
X116486D02*
X115797D01*
X116486D01*
X118455D02*
X117766D01*
X118455D01*
X120423D02*
X119734D01*
X120423D01*
X122392D02*
X121703D01*
X122392D01*
X124360D02*
X123671D01*
X124360D01*
X126329D02*
X125640D01*
X126329D01*
X128297D02*
X127608D01*
X128297D01*
X130266D02*
X129577D01*
X130266D01*
X114518Y157480D02*
X113829D01*
X114518D01*
X116486D02*
X115797D01*
X116486D01*
X128297D02*
X127608D01*
X128297D01*
X130266D02*
X129577D01*
X130266D01*
X114518Y155512D02*
X113829D01*
X114518D01*
X116486D02*
X115797D01*
X116486D01*
X128297D02*
X127608D01*
X128297D01*
X130266D02*
X129577D01*
X130266D01*
X116486Y153543D02*
X115797D01*
X116486D01*
X128297D02*
X127608D01*
X128297D01*
X114518Y151575D02*
X113829D01*
X114518D01*
X116486D02*
X115797D01*
X116486D01*
X118455D02*
X117766D01*
X118455D01*
X120423D02*
X119734D01*
X120423D01*
X122392D02*
X121703D01*
X122392D01*
X124360D02*
X123671D01*
X124360D01*
X126329D02*
X125640D01*
X126329D01*
X128297D02*
X127608D01*
X128297D01*
X130266D02*
X129577D01*
X130266D01*
X114518Y149606D02*
X113829D01*
X114518D01*
X116486D02*
X115797D01*
X116486D01*
X120423D02*
X119734D01*
X120423D01*
X122392D02*
X121703D01*
X122392D01*
X124360D02*
X123671D01*
X124360D01*
X128297D02*
X127608D01*
X128297D01*
X130266D02*
X129577D01*
X130266D01*
D106*
X185039Y133858D02*
D03*
D107*
X187992Y137598D02*
D03*
X186024D02*
D03*
X184055D02*
D03*
X182087D02*
D03*
Y130118D02*
D03*
X184055D02*
D03*
X186024D02*
D03*
X187992D02*
D03*
D108*
X188976Y149931D02*
D03*
X187008D02*
D03*
X183071D02*
D03*
X181102D02*
D03*
Y153218D02*
D03*
X183071D02*
D03*
X187008D02*
D03*
X188976D02*
D03*
D109*
X185039Y149931D02*
D03*
Y153218D02*
D03*
D110*
X183661Y166673D02*
D03*
X185039D02*
D03*
X186417D02*
D03*
X183661Y164035D02*
D03*
X185039D02*
D03*
X186417D02*
D03*
D111*
X154232Y49429D02*
D03*
Y54429D02*
D03*
Y59429D02*
D03*
Y64429D02*
D03*
Y69429D02*
D03*
Y74429D02*
D03*
Y79429D02*
D03*
Y84429D02*
D03*
X176476Y49429D02*
D03*
Y54429D02*
D03*
Y59429D02*
D03*
Y64429D02*
D03*
Y69429D02*
D03*
Y74429D02*
D03*
Y79429D02*
D03*
Y84429D02*
D03*
D112*
X168110Y164980D02*
D03*
Y159980D02*
D03*
Y154980D02*
D03*
Y149980D02*
D03*
X146850Y164980D02*
D03*
Y159980D02*
D03*
Y154980D02*
D03*
Y149980D02*
D03*
D113*
X111811Y52756D02*
D03*
X114961D02*
D03*
X118110D02*
D03*
X121260D02*
D03*
X124409D02*
D03*
X127559D02*
D03*
X130709D02*
D03*
X133858D02*
D03*
X137008D02*
D03*
X140157D02*
D03*
X111811Y55905D02*
D03*
X114961D02*
D03*
X118110D02*
D03*
X121260D02*
D03*
X124409D02*
D03*
X127559D02*
D03*
X130709D02*
D03*
X133858D02*
D03*
X137008D02*
D03*
X140157D02*
D03*
X111811Y59055D02*
D03*
X114961D02*
D03*
X118110D02*
D03*
X121260D02*
D03*
X124409D02*
D03*
X127559D02*
D03*
X130709D02*
D03*
X133858D02*
D03*
X137008D02*
D03*
X140157D02*
D03*
X111811Y62205D02*
D03*
X114961D02*
D03*
X118110D02*
D03*
X121260D02*
D03*
X124409D02*
D03*
X127559D02*
D03*
X130709D02*
D03*
X133858D02*
D03*
X137008D02*
D03*
X140157D02*
D03*
X111811Y65354D02*
D03*
X114961D02*
D03*
X118110D02*
D03*
X121260D02*
D03*
X124409D02*
D03*
X127559D02*
D03*
X130709D02*
D03*
X133858D02*
D03*
X137008D02*
D03*
X140157D02*
D03*
X111811Y68504D02*
D03*
X114961D02*
D03*
X118110D02*
D03*
X121260D02*
D03*
X124409D02*
D03*
X127559D02*
D03*
X130709D02*
D03*
X133858D02*
D03*
X137008D02*
D03*
X140157D02*
D03*
X111811Y71653D02*
D03*
X114961D02*
D03*
X118110D02*
D03*
X121260D02*
D03*
X124409D02*
D03*
X127559D02*
D03*
X130709D02*
D03*
X133858D02*
D03*
X137008D02*
D03*
X140157D02*
D03*
X111811Y74803D02*
D03*
X114961D02*
D03*
X118110D02*
D03*
X121260D02*
D03*
X124409D02*
D03*
X127559D02*
D03*
X130709D02*
D03*
X133858D02*
D03*
X137008D02*
D03*
X140157D02*
D03*
X111811Y77953D02*
D03*
X114961D02*
D03*
X118110D02*
D03*
X121260D02*
D03*
X124409D02*
D03*
X127559D02*
D03*
X130709D02*
D03*
X133858D02*
D03*
X137008D02*
D03*
X140157D02*
D03*
X111811Y81102D02*
D03*
X114961D02*
D03*
X118110D02*
D03*
X121260D02*
D03*
X124409D02*
D03*
X127559D02*
D03*
X130709D02*
D03*
X133858D02*
D03*
X137008D02*
D03*
X140157D02*
D03*
D114*
X91654Y49606D02*
D03*
X73701D02*
D03*
D115*
X82677Y76378D02*
D03*
D116*
X92677Y113976D02*
D03*
X72677D02*
D03*
D117*
X82677Y152756D02*
D03*
D118*
X45433Y32087D02*
D03*
X35433D02*
D03*
X25433D02*
D03*
X48819Y112795D02*
D03*
X42126D02*
D03*
X35433D02*
D03*
X28740D02*
D03*
X22047D02*
D03*
D119*
X35433Y73032D02*
D03*
D120*
Y153740D02*
D03*
M02*
