G04*
G04 #@! TF.GenerationSoftware,Altium Limited,Altium Designer,21.2.2 (38)*
G04*
G04 Layer_Physical_Order=1*
G04 Layer_Color=255*
%FSLAX25Y25*%
%MOIN*%
G70*
G04*
G04 #@! TF.SameCoordinates,8CE579DD-E24D-4BF9-88A6-D400C93C7681*
G04*
G04*
G04 #@! TF.FilePolarity,Positive*
G04*
G01*
G75*
%ADD23R,0.09252X0.06221*%
%ADD24R,0.01181X0.02756*%
%ADD25R,0.09409X0.06299*%
%ADD26R,0.01811X0.02795*%
%ADD27R,0.10827X0.10827*%
%ADD28R,0.02756X0.00984*%
%ADD29R,0.00984X0.02756*%
%ADD54R,0.04921X0.10630*%
%ADD55R,0.05512X0.13386*%
%ADD56R,0.04331X0.10236*%
%ADD57R,0.04724X0.05709*%
%ADD58R,0.01378X0.00984*%
%ADD59R,0.02362X0.02165*%
%ADD60R,0.03150X0.03937*%
%ADD61R,0.04331X0.06693*%
%ADD62O,0.00787X0.02953*%
%ADD63O,0.02953X0.00787*%
%ADD64O,0.03150X0.00984*%
%ADD65O,0.00984X0.03150*%
G04:AMPARAMS|DCode=66|XSize=11.81mil|YSize=64.96mil|CornerRadius=1.95mil|HoleSize=0mil|Usage=FLASHONLY|Rotation=90.000|XOffset=0mil|YOffset=0mil|HoleType=Round|Shape=RoundedRectangle|*
%AMROUNDEDRECTD66*
21,1,0.01181,0.06106,0,0,90.0*
21,1,0.00791,0.06496,0,0,90.0*
1,1,0.00390,0.03053,0.00396*
1,1,0.00390,0.03053,-0.00396*
1,1,0.00390,-0.03053,-0.00396*
1,1,0.00390,-0.03053,0.00396*
%
%ADD66ROUNDEDRECTD66*%
G04:AMPARAMS|DCode=67|XSize=11.81mil|YSize=64.96mil|CornerRadius=1.95mil|HoleSize=0mil|Usage=FLASHONLY|Rotation=0.000|XOffset=0mil|YOffset=0mil|HoleType=Round|Shape=RoundedRectangle|*
%AMROUNDEDRECTD67*
21,1,0.01181,0.06106,0,0,0.0*
21,1,0.00791,0.06496,0,0,0.0*
1,1,0.00390,0.00396,-0.03053*
1,1,0.00390,-0.00396,-0.03053*
1,1,0.00390,-0.00396,0.03053*
1,1,0.00390,0.00396,0.03053*
%
%ADD67ROUNDEDRECTD67*%
%ADD68O,0.08268X0.01181*%
%ADD69O,0.01181X0.08268*%
%ADD70O,0.02165X0.05315*%
%ADD71O,0.05315X0.02165*%
G04:AMPARAMS|DCode=72|XSize=23.62mil|YSize=84.65mil|CornerRadius=2.01mil|HoleSize=0mil|Usage=FLASHONLY|Rotation=180.000|XOffset=0mil|YOffset=0mil|HoleType=Round|Shape=RoundedRectangle|*
%AMROUNDEDRECTD72*
21,1,0.02362,0.08063,0,0,180.0*
21,1,0.01961,0.08465,0,0,180.0*
1,1,0.00402,-0.00980,0.04031*
1,1,0.00402,0.00980,0.04031*
1,1,0.00402,0.00980,-0.04031*
1,1,0.00402,-0.00980,-0.04031*
%
%ADD72ROUNDEDRECTD72*%
G04:AMPARAMS|DCode=73|XSize=25.59mil|YSize=72.84mil|CornerRadius=1.92mil|HoleSize=0mil|Usage=FLASHONLY|Rotation=180.000|XOffset=0mil|YOffset=0mil|HoleType=Round|Shape=RoundedRectangle|*
%AMROUNDEDRECTD73*
21,1,0.02559,0.06900,0,0,180.0*
21,1,0.02175,0.07284,0,0,180.0*
1,1,0.00384,-0.01088,0.03450*
1,1,0.00384,0.01088,0.03450*
1,1,0.00384,0.01088,-0.03450*
1,1,0.00384,-0.01088,-0.03450*
%
%ADD73ROUNDEDRECTD73*%
G04:AMPARAMS|DCode=74|XSize=17.72mil|YSize=72.84mil|CornerRadius=1.95mil|HoleSize=0mil|Usage=FLASHONLY|Rotation=180.000|XOffset=0mil|YOffset=0mil|HoleType=Round|Shape=RoundedRectangle|*
%AMROUNDEDRECTD74*
21,1,0.01772,0.06894,0,0,180.0*
21,1,0.01382,0.07284,0,0,180.0*
1,1,0.00390,-0.00691,0.03447*
1,1,0.00390,0.00691,0.03447*
1,1,0.00390,0.00691,-0.03447*
1,1,0.00390,-0.00691,-0.03447*
%
%ADD74ROUNDEDRECTD74*%
G04:AMPARAMS|DCode=75|XSize=15.75mil|YSize=41.34mil|CornerRadius=1.97mil|HoleSize=0mil|Usage=FLASHONLY|Rotation=180.000|XOffset=0mil|YOffset=0mil|HoleType=Round|Shape=RoundedRectangle|*
%AMROUNDEDRECTD75*
21,1,0.01575,0.03740,0,0,180.0*
21,1,0.01181,0.04134,0,0,180.0*
1,1,0.00394,-0.00591,0.01870*
1,1,0.00394,0.00591,0.01870*
1,1,0.00394,0.00591,-0.01870*
1,1,0.00394,-0.00591,-0.01870*
%
%ADD75ROUNDEDRECTD75*%
G04:AMPARAMS|DCode=76|XSize=127.95mil|YSize=80.71mil|CornerRadius=2.02mil|HoleSize=0mil|Usage=FLASHONLY|Rotation=180.000|XOffset=0mil|YOffset=0mil|HoleType=Round|Shape=RoundedRectangle|*
%AMROUNDEDRECTD76*
21,1,0.12795,0.07667,0,0,180.0*
21,1,0.12392,0.08071,0,0,180.0*
1,1,0.00404,-0.06196,0.03834*
1,1,0.00404,0.06196,0.03834*
1,1,0.00404,0.06196,-0.03834*
1,1,0.00404,-0.06196,-0.03834*
%
%ADD76ROUNDEDRECTD76*%
G04:AMPARAMS|DCode=77|XSize=39.37mil|YSize=80.71mil|CornerRadius=1.97mil|HoleSize=0mil|Usage=FLASHONLY|Rotation=180.000|XOffset=0mil|YOffset=0mil|HoleType=Round|Shape=RoundedRectangle|*
%AMROUNDEDRECTD77*
21,1,0.03937,0.07677,0,0,180.0*
21,1,0.03543,0.08071,0,0,180.0*
1,1,0.00394,-0.01772,0.03839*
1,1,0.00394,0.01772,0.03839*
1,1,0.00394,0.01772,-0.03839*
1,1,0.00394,-0.01772,-0.03839*
%
%ADD77ROUNDEDRECTD77*%
%ADD78R,0.01968X0.04724*%
%ADD79R,0.01968X0.06299*%
%ADD80R,0.02756X0.05118*%
%ADD81R,0.02165X0.03150*%
%ADD82R,0.02756X0.03543*%
%ADD83R,0.03150X0.03543*%
%ADD84C,0.06000*%
%ADD85C,0.01968*%
G36*
X14764Y99606D02*
X12205Y102165D01*
Y108858D01*
X14764Y111417D01*
X16732D01*
X19291Y108858D01*
Y102165D01*
X16732Y99606D01*
X14764D01*
D02*
G37*
D23*
X153543Y98425D02*
D03*
D24*
X149606Y104232D02*
D03*
X151575D02*
D03*
X153543D02*
D03*
X155512D02*
D03*
X157480D02*
D03*
Y92618D02*
D03*
X155512D02*
D03*
X153543D02*
D03*
X151575D02*
D03*
X149606D02*
D03*
D25*
X153543Y66929D02*
D03*
D26*
X149803Y72835D02*
D03*
X153543D02*
D03*
X157283D02*
D03*
Y61024D02*
D03*
X153543D02*
D03*
X149803D02*
D03*
D27*
X125984Y55118D02*
D03*
D28*
X118209Y50197D02*
D03*
Y52165D02*
D03*
Y54134D02*
D03*
Y56102D02*
D03*
Y58071D02*
D03*
Y60039D02*
D03*
X133760D02*
D03*
Y58071D02*
D03*
Y56102D02*
D03*
Y54134D02*
D03*
Y52165D02*
D03*
Y50197D02*
D03*
D29*
X121063Y62894D02*
D03*
X123031D02*
D03*
X125000D02*
D03*
X126969D02*
D03*
X128937D02*
D03*
X130905D02*
D03*
Y47343D02*
D03*
X128937D02*
D03*
X126969D02*
D03*
X125000D02*
D03*
X123031D02*
D03*
X121063D02*
D03*
D54*
X266732Y39370D02*
D03*
X248228D02*
D03*
D55*
X248622Y55118D02*
D03*
X264764D02*
D03*
D56*
X257874Y70866D02*
D03*
X247638D02*
D03*
D57*
X248031Y92520D02*
D03*
X255906D02*
D03*
D58*
X246555Y115354D02*
D03*
X248721D02*
D03*
D59*
X250492Y109449D02*
D03*
X247146D02*
D03*
D60*
X253346Y101969D02*
D03*
X247441D02*
D03*
D61*
X257874Y82677D02*
D03*
X247638D02*
D03*
D62*
X122835Y77362D02*
D03*
X124409D02*
D03*
X125984D02*
D03*
X127559D02*
D03*
X129134D02*
D03*
Y87992D02*
D03*
X127559D02*
D03*
X125984D02*
D03*
X124409D02*
D03*
X122835D02*
D03*
D63*
X131299Y79528D02*
D03*
Y81102D02*
D03*
Y82677D02*
D03*
Y84252D02*
D03*
Y85827D02*
D03*
X120669D02*
D03*
Y84252D02*
D03*
Y82677D02*
D03*
Y81102D02*
D03*
Y79528D02*
D03*
D64*
X120472Y107283D02*
D03*
Y109252D02*
D03*
Y111221D02*
D03*
Y113189D02*
D03*
X131496D02*
D03*
Y111221D02*
D03*
Y109252D02*
D03*
Y107283D02*
D03*
D65*
X123031Y115748D02*
D03*
X125000D02*
D03*
X126969D02*
D03*
X128937D02*
D03*
Y104724D02*
D03*
X126969D02*
D03*
X125000D02*
D03*
X123031D02*
D03*
D66*
X213287Y172244D02*
D03*
Y170276D02*
D03*
Y168307D02*
D03*
Y166339D02*
D03*
Y164370D02*
D03*
Y162402D02*
D03*
Y160433D02*
D03*
Y158465D02*
D03*
Y156496D02*
D03*
Y154527D02*
D03*
Y152559D02*
D03*
Y150591D02*
D03*
Y148622D02*
D03*
Y146653D02*
D03*
Y144685D02*
D03*
Y142717D02*
D03*
X259154D02*
D03*
Y144685D02*
D03*
Y146653D02*
D03*
Y148622D02*
D03*
Y150591D02*
D03*
Y152559D02*
D03*
Y154527D02*
D03*
Y156496D02*
D03*
Y158465D02*
D03*
Y160433D02*
D03*
Y162402D02*
D03*
Y164370D02*
D03*
Y166339D02*
D03*
Y168307D02*
D03*
Y170276D02*
D03*
Y172244D02*
D03*
D67*
X221457Y134547D02*
D03*
X223425D02*
D03*
X225394D02*
D03*
X227362D02*
D03*
X229331D02*
D03*
X231299D02*
D03*
X233268D02*
D03*
X235236D02*
D03*
X237205D02*
D03*
X239173D02*
D03*
X241142D02*
D03*
X243110D02*
D03*
X245079D02*
D03*
X247047D02*
D03*
X249016D02*
D03*
X250984D02*
D03*
Y180413D02*
D03*
X249016D02*
D03*
X247047D02*
D03*
X245079D02*
D03*
X243110D02*
D03*
X241142D02*
D03*
X239173D02*
D03*
X237205D02*
D03*
X235236D02*
D03*
X233268D02*
D03*
X231299D02*
D03*
X229331D02*
D03*
X227362D02*
D03*
X225394D02*
D03*
X223425D02*
D03*
X221457D02*
D03*
D68*
X164961Y168307D02*
D03*
Y166339D02*
D03*
Y164370D02*
D03*
Y162402D02*
D03*
Y160433D02*
D03*
Y158465D02*
D03*
Y156496D02*
D03*
Y154527D02*
D03*
Y152559D02*
D03*
Y150591D02*
D03*
Y148622D02*
D03*
Y146653D02*
D03*
X197244D02*
D03*
Y148622D02*
D03*
Y150591D02*
D03*
Y152559D02*
D03*
Y154527D02*
D03*
Y156496D02*
D03*
Y158465D02*
D03*
Y160433D02*
D03*
Y162402D02*
D03*
Y164370D02*
D03*
Y166339D02*
D03*
Y168307D02*
D03*
D69*
X170276Y141339D02*
D03*
X172244D02*
D03*
X174213D02*
D03*
X176181D02*
D03*
X178150D02*
D03*
X180118D02*
D03*
X182087D02*
D03*
X184055D02*
D03*
X186024D02*
D03*
X187992D02*
D03*
X189961D02*
D03*
X191929D02*
D03*
Y173622D02*
D03*
X189961D02*
D03*
X187992D02*
D03*
X186024D02*
D03*
X184055D02*
D03*
X182087D02*
D03*
X180118D02*
D03*
X178150D02*
D03*
X176181D02*
D03*
X174213D02*
D03*
X172244D02*
D03*
X170276D02*
D03*
D70*
X126772Y173819D02*
D03*
X129921D02*
D03*
X133071D02*
D03*
X136221D02*
D03*
X139370D02*
D03*
X142520D02*
D03*
X145669D02*
D03*
X148819D02*
D03*
Y141142D02*
D03*
X145669D02*
D03*
X142520D02*
D03*
X139370D02*
D03*
X136221D02*
D03*
X133071D02*
D03*
X129921D02*
D03*
X126772D02*
D03*
D71*
X154134Y168504D02*
D03*
Y165354D02*
D03*
Y162205D02*
D03*
Y159055D02*
D03*
Y155905D02*
D03*
Y152756D02*
D03*
Y149606D02*
D03*
Y146457D02*
D03*
X121457D02*
D03*
Y149606D02*
D03*
Y152756D02*
D03*
Y155905D02*
D03*
Y159055D02*
D03*
Y162205D02*
D03*
Y165354D02*
D03*
Y168504D02*
D03*
D72*
X97677Y174902D02*
D03*
X87677D02*
D03*
X77677D02*
D03*
X67677D02*
D03*
X97677Y140059D02*
D03*
X87677D02*
D03*
X77677D02*
D03*
X67677D02*
D03*
D73*
X65177Y95571D02*
D03*
X70177D02*
D03*
X75177D02*
D03*
X80177D02*
D03*
X85177D02*
D03*
X90177D02*
D03*
X95177D02*
D03*
X100177D02*
D03*
X65177Y124902D02*
D03*
X70177D02*
D03*
X75177D02*
D03*
X80177D02*
D03*
X85177D02*
D03*
X90177D02*
D03*
X95177D02*
D03*
X100177D02*
D03*
D74*
X32579Y57973D02*
D03*
X30020D02*
D03*
X27461D02*
D03*
X24902D02*
D03*
X22343D02*
D03*
X19783D02*
D03*
X17224D02*
D03*
X14665D02*
D03*
X32579Y28642D02*
D03*
X30020D02*
D03*
X27461D02*
D03*
X24902D02*
D03*
X22343D02*
D03*
X19783D02*
D03*
X17224D02*
D03*
X14665D02*
D03*
D75*
X19587Y86516D02*
D03*
X17028D02*
D03*
X14469D02*
D03*
X11909D02*
D03*
X19587Y70965D02*
D03*
X17028D02*
D03*
X14469D02*
D03*
X11909D02*
D03*
D76*
X78740Y79429D02*
D03*
D77*
X87795Y54429D02*
D03*
X78740D02*
D03*
X69685D02*
D03*
D78*
X21654Y95669D02*
D03*
X9843D02*
D03*
D79*
X15748Y96457D02*
D03*
D80*
X12008Y135039D02*
D03*
X15748D02*
D03*
X19488D02*
D03*
Y144488D02*
D03*
X12008D02*
D03*
D81*
Y117323D02*
D03*
X15748D02*
D03*
X19488D02*
D03*
Y126772D02*
D03*
X15748D02*
D03*
X12008D02*
D03*
D82*
X13189Y169488D02*
D03*
X18307D02*
D03*
X15748Y176969D02*
D03*
D83*
X12008Y153543D02*
D03*
X19488D02*
D03*
X15748Y161417D02*
D03*
D84*
X377953Y70866D02*
D03*
X375984Y39370D02*
D03*
X379921Y100000D02*
D03*
X381890Y124016D02*
D03*
X383071Y143701D02*
D03*
X383858Y159449D02*
D03*
X385039Y173228D02*
D03*
D85*
X183465Y133858D02*
D03*
X186614D02*
D03*
M02*
